<svg width="23" height="27" viewBox="0 0 23 27" fill="none" xmlns="http://www.w3.org/2000/svg">
<path d="M11.5009 0L0 16.2001V20.716L11.5009 26.613L23 20.716V16.2001L11.5009 0Z" fill="url(#paint0_linear_15_340)" fill-opacity="0.8"/>
<path d="M11.5009 26.613L23 20.716V16.2001L11.5009 26.613Z" fill="url(#paint1_linear_15_340)"/>
<path d="M19.9535 11.9091L23 16.2002L22.3094 2.97461L19.9535 11.9091Z" fill="url(#paint2_linear_15_340)"/>
<path d="M11.5009 26.6076L0 20.7124V16.1965L11.5009 26.6076Z" fill="#0085FF"/>
<path d="M3.04652 11.9055L0 16.1966L0.690592 2.97101L3.04652 11.9055Z" fill="url(#paint3_linear_15_340)"/>
<defs>
<linearGradient id="paint0_linear_15_340" x1="11.0112" y1="26.6018" x2="11.9631" y2="1.2349" gradientUnits="userSpaceOnUse">
<stop stop-color="#001AFF"/>
<stop offset="1" stop-color="#0057FF"/>
</linearGradient>
<linearGradient id="paint1_linear_15_340" x1="17.2505" y1="16.2001" x2="17.2505" y2="26.613" gradientUnits="userSpaceOnUse">
<stop stop-color="#0085FF"/>
<stop offset="1" stop-color="#0085FF"/>
</linearGradient>
<linearGradient id="paint2_linear_15_340" x1="21.4767" y1="2.97461" x2="21.4767" y2="16.2002" gradientUnits="userSpaceOnUse">
<stop stop-color="#2134E4"/>
<stop offset="1" stop-color="#331DBE"/>
</linearGradient>
<linearGradient id="paint3_linear_15_340" x1="1.52326" y1="2.97101" x2="1.52326" y2="16.1966" gradientUnits="userSpaceOnUse">
<stop stop-color="#2134E4"/>
<stop offset="1" stop-color="#331DBE"/>
</linearGradient>
</defs>
</svg>
