<svg width="99" height="78" viewBox="0 0 99 78" fill="none" xmlns="http://www.w3.org/2000/svg">
<path opacity="0.45" d="M67.2844 10.3972C61.4439 9.10373 55.4806 8.45269 49.4999 8.45556C31.4854 8.45556 14.8182 14.2805 1.2794 24.167C0.910338 24.4441 0.60545 24.7984 0.385745 25.2053C0.166041 25.6123 0.0367421 26.0622 0.00675756 26.5242C-0.023227 26.9862 0.0468153 27.4493 0.212059 27.8815C0.377302 28.3136 0.633819 28.7047 0.963936 29.0277C1.53832 29.5961 2.29484 29.9414 3.0988 30.0018C3.90276 30.0623 4.70199 29.8341 5.35419 29.3579C18.2039 20.0393 33.6535 15.0354 49.4999 15.0598C53.6405 15.0598 57.7087 15.39 61.6717 16.0372L67.2844 10.3972V10.3972ZM49.4999 28.2682C36.9798 28.2682 25.3141 31.9665 15.5477 38.3462C15.157 38.6111 14.8304 38.9607 14.5918 39.3692C14.3532 39.7777 14.2087 40.2347 14.169 40.7067C14.1293 41.1787 14.1953 41.6536 14.3623 42.0965C14.5292 42.5395 14.7928 42.9392 15.1337 43.2663C15.6937 43.8155 16.4228 44.1571 17.2014 44.2351C17.98 44.3131 18.7619 44.1229 19.4188 43.6956C26.3898 39.2064 34.2717 36.3407 42.4874 35.3083L49.4999 28.2682ZM66.5615 37.5405L71.7207 32.3562C75.8612 33.9412 79.7848 35.9555 83.4522 38.3462C83.8409 38.6127 84.1656 38.9629 84.4027 39.3713C84.6399 39.7798 84.7835 40.2362 84.8232 40.7073C84.8628 41.1785 84.7975 41.6527 84.632 42.0953C84.4664 42.538 84.2048 42.938 83.8662 43.2663C83.3062 43.8155 82.5771 44.1571 81.7985 44.2351C81.0198 44.3131 80.238 44.1229 79.5811 43.6956C75.5268 41.0865 71.1526 39.0175 66.5681 37.5405H66.5615ZM49.4999 54.685L55.6318 48.5233C60.2417 49.1864 64.7115 50.6077 68.8618 52.7301C70.7349 53.6878 71.0043 56.1907 69.519 57.6833L69.4204 57.7824C68.8958 58.289 68.227 58.6185 67.5072 58.725C66.7874 58.8316 66.0525 58.7098 65.4048 58.3767C60.4544 55.9387 55.0129 54.6757 49.4999 54.685V54.685ZM81.7368 22.2914L86.6463 17.358C90.5239 19.3393 94.2241 21.6177 97.7205 24.1604C98.0902 24.438 98.3955 24.793 98.6153 25.2008C98.8351 25.6086 98.9642 26.0595 98.9935 26.5223C99.0229 26.9852 98.9519 27.4489 98.7854 27.8815C98.619 28.314 98.361 28.7051 98.0294 29.0277C97.455 29.5961 96.6985 29.9414 95.8945 30.0018C95.0906 30.0623 94.2913 29.8341 93.6391 29.3579C89.895 26.6417 85.9109 24.2763 81.7368 22.2914V22.2914ZM56.2036 66.4405C57.7678 67.3651 57.7547 69.5048 56.4665 70.7992L51.8199 75.4618C51.2037 76.0809 50.368 76.4286 49.4967 76.4286C48.6253 76.4286 47.7896 76.0809 47.1734 75.4618L42.5268 70.7926C41.2452 69.5048 41.2321 67.3717 42.7897 66.4339C44.8199 65.2222 47.1387 64.5855 49.4999 64.5913C51.958 64.5913 54.2517 65.2649 56.2102 66.4405H56.2036ZM84.8257 1.02583C85.4794 0.369002 86.3659 0 87.2903 0C88.2147 0 89.1013 0.369002 89.7549 1.02583C90.4086 1.68266 90.7758 2.57351 90.7758 3.50241C90.7758 4.4313 90.4086 5.32216 89.7549 5.97898L19.1033 76.9742C18.7797 77.2994 18.3954 77.5574 17.9726 77.7334C17.5497 77.9094 17.0965 78 16.6387 78C16.181 78 15.7278 77.9094 15.3049 77.7334C14.882 77.5574 14.4978 77.2994 14.1741 76.9742C13.8505 76.6489 13.5938 76.2628 13.4186 75.8379C13.2434 75.413 13.1533 74.9575 13.1533 74.4976C13.1533 74.0377 13.2434 73.5822 13.4186 73.1573C13.5938 72.7323 13.8505 72.3462 14.1741 72.021L84.8257 1.02583Z" fill="#43466A"/>
</svg>
