<svg width="16" height="15" viewBox="0 0 16 15" fill="none" xmlns="http://www.w3.org/2000/svg">
<path d="M10.5204 2.38876C10.5204 1.85373 10.7084 1.3357 11.0517 0.925324C11.395 0.514945 11.8717 0.238343 12.3983 0.143911C12.925 0.04948 13.468 0.143233 13.9325 0.408767C14.397 0.674301 14.7534 1.09471 14.9392 1.59643C15.125 2.09816 15.1285 2.64925 14.9491 3.1533C14.7696 3.65734 14.4187 4.08224 13.9576 4.35366C13.4965 4.62507 12.9547 4.72572 12.4269 4.63798C11.8991 4.55025 11.4189 4.27972 11.0705 3.87374L4.94265 6.71964C5.08353 7.16608 5.08353 7.64506 4.94265 8.09151L11.0705 10.9374C11.4388 10.509 11.9531 10.2326 12.5136 10.1618C13.0742 10.0909 13.6411 10.2307 14.1044 10.554C14.5678 10.8773 14.8946 11.3611 15.0216 11.9117C15.1485 12.4622 15.0666 13.0403 14.7916 13.5339C14.5167 14.0275 14.0683 14.4014 13.5333 14.5832C12.9984 14.765 12.415 14.7418 11.8962 14.518C11.3774 14.2941 10.9602 13.8857 10.7254 13.3718C10.4906 12.8579 10.4549 12.2751 10.6253 11.7364L4.49752 8.89055C4.19418 9.24407 3.78984 9.49621 3.3389 9.61304C2.88796 9.72988 2.41205 9.70582 1.9752 9.54408C1.53835 9.38234 1.16151 9.0907 0.895372 8.70838C0.629236 8.32606 0.486572 7.8714 0.486572 7.40557C0.486572 6.93974 0.629236 6.48508 0.895372 6.10276C1.16151 5.72044 1.53835 5.4288 1.9752 5.26706C2.41205 5.10533 2.88796 5.08126 3.3389 5.1981C3.78984 5.31494 4.19418 5.56707 4.49752 5.9206L10.6253 3.0747C10.5556 2.85274 10.5202 2.62142 10.5204 2.38876Z" fill="#43466A"/>
</svg>
