<svg width="11" height="11" viewBox="0 0 11 11" fill="none" xmlns="http://www.w3.org/2000/svg">
<path d="M3.3 2.75C3.59174 2.75 3.87153 2.86589 4.07782 3.07218C4.28411 3.27847 4.4 3.55826 4.4 3.85V6.6C4.4 6.89174 4.28411 7.17153 4.07782 7.37782C3.87153 7.58411 3.59174 7.7 3.3 7.7C3.00826 7.7 2.72847 7.58411 2.52218 7.37782C2.31589 7.17153 2.2 6.89174 2.2 6.6V3.85C2.2 3.55826 2.31589 3.27847 2.52218 3.07218C2.72847 2.86589 3.00826 2.75 3.3 2.75V2.75ZM6.6 6.6C6.6 8.2335 5.412 9.592 3.85 9.856V11H2.75V9.856C1.188 9.592 0 8.2335 0 6.6H1.1C1.1 7.18348 1.33178 7.74305 1.74437 8.15563C2.15695 8.56821 2.71652 8.8 3.3 8.8C3.88348 8.8 4.44306 8.56821 4.85564 8.15563C5.26822 7.74305 5.5 7.18348 5.5 6.6H6.6ZM10.6755 4.0755L8.3435 6.413L8.899 4.4H6.6C6.30826 4.4 6.02847 4.28411 5.82218 4.07782C5.61589 3.87153 5.5 3.59174 5.5 3.3V1.1C5.5 0.808262 5.61589 0.528473 5.82218 0.322182C6.02847 0.115892 6.30826 0 6.6 0H9.9C10.1917 0 10.4715 0.115892 10.6778 0.322182C10.8841 0.528473 11 0.808262 11 1.1V3.3C11 3.6025 10.879 3.8775 10.6755 4.0755Z" fill="#43466A"/>
</svg>
